<mxfile host="app.diagrams.net" agent="Mozilla/5.0 (Macintosh; Intel Mac OS X 10_15_7) AppleWebKit/537.36 (KHTML, like Gecko) Chrome/131.0.0.0 Safari/537.36" version="26.0.11">
  <diagram name="ページ1" id="weE-28tovV2WwTA0eF0w">
    <mxGraphModel dx="940" dy="625" grid="1" gridSize="10" guides="1" tooltips="1" connect="1" arrows="1" fold="1" page="1" pageScale="1" pageWidth="827" pageHeight="1169" math="0" shadow="0">
      <root>
        <mxCell id="0" />
        <mxCell id="1" parent="0" />
        <mxCell id="1-M3Ek044AznfxuNTye2-17" value="" style="group;fontSize=14;fontStyle=1;" parent="1" vertex="1" connectable="0">
          <mxGeometry x="220" y="70" width="390" height="280" as="geometry" />
        </mxCell>
        <mxCell id="1-M3Ek044AznfxuNTye2-6" value="" style="edgeStyle=orthogonalEdgeStyle;rounded=0;orthogonalLoop=1;jettySize=auto;entryX=0.5;entryY=0;entryDx=0;entryDy=0;fontSize=14;fontStyle=1" parent="1-M3Ek044AznfxuNTye2-17" source="1-M3Ek044AznfxuNTye2-1" target="1-M3Ek044AznfxuNTye2-3" edge="1">
          <mxGeometry relative="1" as="geometry">
            <Array as="points">
              <mxPoint x="194" y="60" />
              <mxPoint x="60" y="60" />
            </Array>
          </mxGeometry>
        </mxCell>
        <mxCell id="1-M3Ek044AznfxuNTye2-7" value="" style="edgeStyle=orthogonalEdgeStyle;rounded=0;orthogonalLoop=1;jettySize=auto;entryX=0.5;entryY=0;entryDx=0;entryDy=0;fontSize=14;fontStyle=1" parent="1-M3Ek044AznfxuNTye2-17" source="1-M3Ek044AznfxuNTye2-1" target="1-M3Ek044AznfxuNTye2-4" edge="1">
          <mxGeometry relative="1" as="geometry" />
        </mxCell>
        <mxCell id="1-M3Ek044AznfxuNTye2-8" value="" style="edgeStyle=orthogonalEdgeStyle;rounded=0;orthogonalLoop=1;jettySize=auto;entryX=0.5;entryY=0;entryDx=0;entryDy=0;fontSize=14;fontStyle=1" parent="1-M3Ek044AznfxuNTye2-17" source="1-M3Ek044AznfxuNTye2-1" target="1-M3Ek044AznfxuNTye2-5" edge="1">
          <mxGeometry relative="1" as="geometry">
            <Array as="points">
              <mxPoint x="194" y="60" />
              <mxPoint x="330" y="60" />
            </Array>
          </mxGeometry>
        </mxCell>
        <mxCell id="1-M3Ek044AznfxuNTye2-1" value="ルーティング方式" style="rounded=1;fontSize=14;fontStyle=1;" parent="1-M3Ek044AznfxuNTye2-17" vertex="1">
          <mxGeometry x="134" width="120" height="40" as="geometry" />
        </mxCell>
        <mxCell id="1-M3Ek044AznfxuNTye2-13" value="" style="edgeStyle=orthogonalEdgeStyle;rounded=0;orthogonalLoop=1;jettySize=auto;entryX=0.5;entryY=0;entryDx=0;entryDy=0;fontSize=14;fontStyle=1" parent="1-M3Ek044AznfxuNTye2-17" source="1-M3Ek044AznfxuNTye2-3" target="1-M3Ek044AznfxuNTye2-10" edge="1">
          <mxGeometry relative="1" as="geometry" />
        </mxCell>
        <mxCell id="1-M3Ek044AznfxuNTye2-3" value="リアクティブ型" style="rounded=1;fontSize=14;fontStyle=1;" parent="1-M3Ek044AznfxuNTye2-17" vertex="1">
          <mxGeometry y="80" width="120" height="40" as="geometry" />
        </mxCell>
        <mxCell id="1-M3Ek044AznfxuNTye2-14" value="" style="edgeStyle=orthogonalEdgeStyle;rounded=0;orthogonalLoop=1;jettySize=auto;entryX=0.5;entryY=0;entryDx=0;entryDy=0;fontSize=14;fontStyle=1" parent="1-M3Ek044AznfxuNTye2-17" source="1-M3Ek044AznfxuNTye2-4" target="1-M3Ek044AznfxuNTye2-12" edge="1">
          <mxGeometry relative="1" as="geometry" />
        </mxCell>
        <mxCell id="1-M3Ek044AznfxuNTye2-4" value="リアクティブ型" style="rounded=1;fontSize=14;fontStyle=1;" parent="1-M3Ek044AznfxuNTye2-17" vertex="1">
          <mxGeometry x="134" y="110" width="120" height="40" as="geometry" />
        </mxCell>
        <mxCell id="1-M3Ek044AznfxuNTye2-15" value="" style="edgeStyle=orthogonalEdgeStyle;rounded=0;orthogonalLoop=1;jettySize=auto;entryX=0.5;entryY=0;entryDx=0;entryDy=0;fontSize=14;fontStyle=1" parent="1-M3Ek044AznfxuNTye2-17" source="1-M3Ek044AznfxuNTye2-5" target="1-M3Ek044AznfxuNTye2-11" edge="1">
          <mxGeometry relative="1" as="geometry" />
        </mxCell>
        <mxCell id="1-M3Ek044AznfxuNTye2-5" value="プロアクティブ型" style="rounded=1;fontSize=14;fontStyle=1;" parent="1-M3Ek044AznfxuNTye2-17" vertex="1">
          <mxGeometry x="270" y="80" width="120" height="40" as="geometry" />
        </mxCell>
        <mxCell id="1-M3Ek044AznfxuNTye2-10" value="AODV&#xa;DSR&#xa;TORA&#xa;LAR&#xa;ABR" style="rounded=1;fontSize=14;fontStyle=1;" parent="1-M3Ek044AznfxuNTye2-17" vertex="1">
          <mxGeometry x="15" y="160" width="90" height="120" as="geometry" />
        </mxCell>
        <mxCell id="1-M3Ek044AznfxuNTye2-11" value="DSDV&#xa;OLSR&#xa;WRP&#xa;CGSR&#xa; MMRP" style="rounded=1;fontSize=14;fontStyle=1;" parent="1-M3Ek044AznfxuNTye2-17" vertex="1">
          <mxGeometry x="285" y="155" width="90" height="120" as="geometry" />
        </mxCell>
        <mxCell id="1-M3Ek044AznfxuNTye2-12" value="ZRP" style="rounded=1;fontSize=14;fontStyle=1;" parent="1-M3Ek044AznfxuNTye2-17" vertex="1">
          <mxGeometry x="149" y="190" width="90" height="50" as="geometry" />
        </mxCell>
      </root>
    </mxGraphModel>
  </diagram>
</mxfile>
